<?xml version="1.0" encoding="iso-8859-1"?>
<!-- Generator: Adobe Illustrator 18.0.0, SVG Export Plug-In . SVG Version: 6.00 Build 0)  -->
<!DOCTYPE svg PUBLIC "-//W3C//DTD SVG 1.1//EN" "http://www.w3.org/Graphics/SVG/1.1/DTD/svg11.dtd">
<svg xmlns="http://www.w3.org/2000/svg" xmlns:xlink="http://www.w3.org/1999/xlink" version="1.1" id="Capa_1" x="0px" y="0px" viewBox="0 0 465.606 465.606" style="enable-background:new 0 0 465.606 465.606;" xml:space="preserve" width="512px" height="512px">
<g>
	<path d="M454.233,319.613h-35.089c-3.037,0-5.5,2.462-5.5,5.5v15.263H401.48v-15.263c0-3.038-2.463-5.5-5.5-5.5h-16.254V213.565   h5.198c1.925,0,3.709-1.006,4.706-2.653c0.996-1.647,1.059-3.695,0.166-5.4l-36.749-70.14v-33.207l33.463-12.678   c2.138-0.81,3.552-2.857,3.552-5.143c0-2.286-1.414-4.333-3.552-5.143l-37.015-14.023c-1.687-0.64-3.585-0.41-5.073,0.617   c-1.487,1.027-2.375,2.719-2.375,4.526v65.051l-36.749,70.14c-0.893,1.705-0.83,3.753,0.166,5.4   c0.997,1.646,2.781,2.653,4.706,2.653h5.206v106.047h-12.738c-3.037,0-5.5,2.462-5.5,5.5v15.263h-12.164v-15.263   c0-3.038-2.463-5.5-5.5-5.5h-9.668V161.654h7.139c1.925,0,3.709-1.006,4.706-2.653c0.996-1.647,1.059-3.695,0.166-5.4   L238.303,70.55V37.343l33.463-12.678c2.138-0.81,3.552-2.857,3.552-5.143c0-2.286-1.414-4.333-3.552-5.143L234.751,0.356   c-1.688-0.64-3.585-0.409-5.073,0.617C228.191,2,227.303,3.692,227.303,5.5V70.55l-43.515,83.052   c-0.893,1.705-0.83,3.753,0.166,5.4c0.996,1.646,2.781,2.653,4.706,2.653h7.146v157.958h-9.674c-3.037,0-5.5,2.462-5.5,5.5v15.263   h-12.164v-15.263c0-3.038-2.463-5.5-5.5-5.5h-12.731V213.565h5.199c1.925,0,3.709-1.006,4.706-2.653   c0.996-1.647,1.059-3.695,0.166-5.4l-36.749-70.14v-33.207l33.463-12.678c2.138-0.81,3.552-2.857,3.552-5.143   c0-2.286-1.414-4.333-3.552-5.143l-37.015-14.023c-1.688-0.64-3.586-0.41-5.073,0.617s-2.375,2.719-2.375,4.526v65.051   l-36.749,70.14c-0.893,1.705-0.83,3.753,0.166,5.4c0.997,1.646,2.781,2.653,4.706,2.653h5.204v106.047h-16.26   c-3.037,0-5.5,2.462-5.5,5.5v15.263H51.962v-15.263c0-3.038-2.463-5.5-5.5-5.5H11.373c-3.037,0-5.5,2.462-5.5,5.5v134.993   c0,3.038,2.463,5.5,5.5,5.5h442.859c3.037,0,5.5-2.462,5.5-5.5V325.113C459.733,322.075,457.27,319.613,454.233,319.613z    M319.261,202.565l4.56-8.703h47.453l4.56,8.703H319.261z M329.584,182.863l17.963-34.285l17.963,34.285H329.584z M353.047,78.288   l15.99,6.058l-15.99,6.058V78.288z M326.376,213.565h42.35v106.047h-7.835c-3.037,0-5.5,2.462-5.5,5.5v15.263h-12.164v-15.263   c0-3.038-2.463-5.5-5.5-5.5h-11.351V213.565z M197.751,150.654l5.421-10.346h59.261l5.42,10.346H197.751z M208.935,129.309   l23.868-45.553l23.867,45.553H208.935z M238.303,13.465l15.99,6.058l-15.99,6.058V13.465z M206.806,161.654h52v157.958h-14.421   c-3.037,0-5.5,2.462-5.5,5.5v15.263h-12.164v-15.263c0-3.038-2.463-5.5-5.5-5.5h-14.415V161.654z M89.773,202.565l4.56-8.703   h47.453l4.56,8.703H89.773z M100.096,182.863l17.963-34.285l17.963,34.285H100.096z M123.559,78.288l15.99,6.058l-15.99,6.058   V78.288z M96.886,288.615h15.471c3.037,0,5.5-2.462,5.5-5.5s-2.463-5.5-5.5-5.5H96.886v-64.049h42.351v106.047h-11.357   c-3.037,0-5.5,2.462-5.5,5.5v15.263h-12.164v-15.263c0-3.038-2.463-5.5-5.5-5.5h-7.829V288.615z M448.733,454.606H16.873V330.613   h24.089v15.263c0,3.038,2.463,5.5,5.5,5.5h23.164c3.037,0,5.5-2.462,5.5-5.5v-15.263h24.089v15.263c0,3.038,2.463,5.5,5.5,5.5   h23.164c3.037,0,5.5-2.462,5.5-5.5v-15.263h24.089v15.263c0,3.038,2.463,5.5,5.5,5.5h23.164c3.037,0,5.5-2.462,5.5-5.5v-15.263   h24.089v15.263c0,3.038,2.463,5.5,5.5,5.5h23.164c3.037,0,5.5-2.462,5.5-5.5v-15.263h24.089v15.263c0,3.038,2.463,5.5,5.5,5.5   h23.164c3.037,0,5.5-2.462,5.5-5.5v-15.263h24.089v15.263c0,3.038,2.463,5.5,5.5,5.5h23.164c3.037,0,5.5-2.462,5.5-5.5v-15.263   h24.089v15.263c0,3.038,2.463,5.5,5.5,5.5h23.164c3.037,0,5.5-2.462,5.5-5.5v-15.263h24.089V454.606z" fill="#FFFFFF"/>
	<path d="M223.803,218.118h17.999c3.037,0,5.5-2.462,5.5-5.5V185.62c0-7.995-6.504-14.5-14.499-14.5s-14.5,6.504-14.5,14.5v26.999   C218.303,215.656,220.766,218.118,223.803,218.118z M229.303,185.62c0-1.93,1.57-3.5,3.5-3.5s3.499,1.57,3.499,3.5v21.499h-6.999   V185.62z" fill="#FFFFFF"/>
	<path d="M132.558,263.616v-26.999c0-7.995-6.504-14.5-14.499-14.5s-14.5,6.504-14.5,14.5v26.999c0,3.038,2.463,5.5,5.5,5.5h17.999   C130.095,269.116,132.558,266.653,132.558,263.616z M121.558,258.116h-6.999v-21.499c0-1.93,1.57-3.5,3.5-3.5s3.499,1.57,3.499,3.5   V258.116z" fill="#FFFFFF"/>
	<path d="M356.547,269.116c3.037,0,5.5-2.462,5.5-5.5v-26.999c0-7.995-6.505-14.5-14.5-14.5s-14.5,6.504-14.5,14.5v26.999   c0,3.038,2.463,5.5,5.5,5.5H356.547z M344.047,236.617c0-1.93,1.57-3.5,3.5-3.5s3.5,1.57,3.5,3.5v21.499h-7V236.617z" fill="#FFFFFF"/>
	<path d="M54.86,371.61c0-3.038-2.463-5.5-5.5-5.5H35.861c-3.037,0-5.5,2.462-5.5,5.5s2.463,5.5,5.5,5.5H49.36   C52.397,377.11,54.86,374.648,54.86,371.61z" fill="#FFFFFF"/>
	<path d="M64.359,381.109H50.86c-3.037,0-5.5,2.462-5.5,5.5s2.463,5.5,5.5,5.5h13.499c3.037,0,5.5-2.462,5.5-5.5   S67.396,381.109,64.359,381.109z" fill="#FFFFFF"/>
	<path d="M206.852,412.608h-13.5c-3.037,0-5.5,2.462-5.5,5.5s2.463,5.5,5.5,5.5h13.5c3.037,0,5.5-2.462,5.5-5.5   S209.889,412.608,206.852,412.608z" fill="#FFFFFF"/>
	<path d="M228.35,263.616c0,3.038,2.463,5.5,5.5,5.5h13.5c3.037,0,5.5-2.462,5.5-5.5s-2.463-5.5-5.5-5.5h-13.5   C230.813,258.116,228.35,260.578,228.35,263.616z" fill="#FFFFFF"/>
	<path d="M106.357,430.607H92.858c-3.037,0-5.5,2.462-5.5,5.5s2.463,5.5,5.5,5.5h13.499c3.037,0,5.5-2.462,5.5-5.5   S109.394,430.607,106.357,430.607z" fill="#FFFFFF"/>
	<path d="M234.851,280.115c0-3.038-2.463-5.5-5.5-5.5h-13.5c-3.037,0-5.5,2.462-5.5,5.5s2.463,5.5,5.5,5.5h13.5   C232.388,285.615,234.851,283.152,234.851,280.115z" fill="#FFFFFF"/>
	<path d="M113.857,305.114h13.499c3.037,0,5.5-2.462,5.5-5.5s-2.463-5.5-5.5-5.5h-13.499c-3.037,0-5.5,2.462-5.5,5.5   S110.82,305.114,113.857,305.114z" fill="#FFFFFF"/>
	<path d="M346.345,276.115c-3.037,0-5.5,2.462-5.5,5.5s2.463,5.5,5.5,5.5h13.499c3.037,0,5.5-2.462,5.5-5.5s-2.463-5.5-5.5-5.5   H346.345z" fill="#FFFFFF"/>
	<path d="M223.351,399.909h-13.499c-3.037,0-5.5,2.462-5.5,5.5s2.463,5.5,5.5,5.5h13.499c3.037,0,5.5-2.462,5.5-5.5   S226.388,399.909,223.351,399.909z" fill="#FFFFFF"/>
	<path d="M403.342,366.11h-13.5c-3.037,0-5.5,2.462-5.5,5.5s2.463,5.5,5.5,5.5h13.5c3.037,0,5.5-2.462,5.5-5.5   S406.379,366.11,403.342,366.11z" fill="#FFFFFF"/>
	<path d="M389.842,381.109h-13.499c-3.037,0-5.5,2.462-5.5,5.5s2.463,5.5,5.5,5.5h13.499c3.037,0,5.5-2.462,5.5-5.5   S392.879,381.109,389.842,381.109z" fill="#FFFFFF"/>
	<path d="M154.354,372.11h-13.499c-3.037,0-5.5,2.462-5.5,5.5s2.463,5.5,5.5,5.5h13.499c3.037,0,5.5-2.462,5.5-5.5   S157.391,372.11,154.354,372.11z" fill="#FFFFFF"/>
	<path d="M349.344,424.607h-13.499c-3.037,0-5.5,2.462-5.5,5.5s2.463,5.5,5.5,5.5h13.499c3.037,0,5.5-2.462,5.5-5.5   S352.381,424.607,349.344,424.607z" fill="#FFFFFF"/>
</g>
<g>
</g>
<g>
</g>
<g>
</g>
<g>
</g>
<g>
</g>
<g>
</g>
<g>
</g>
<g>
</g>
<g>
</g>
<g>
</g>
<g>
</g>
<g>
</g>
<g>
</g>
<g>
</g>
<g>
</g>
</svg>
