<?xml version="1.0" encoding="iso-8859-1"?>
<!-- Generator: Adobe Illustrator 19.0.0, SVG Export Plug-In . SVG Version: 6.00 Build 0)  -->
<svg xmlns="http://www.w3.org/2000/svg" xmlns:xlink="http://www.w3.org/1999/xlink" version="1.1" id="Capa_1" x="0px" y="0px" viewBox="0 0 55.041 55.041" style="enable-background:new 0 0 55.041 55.041;" xml:space="preserve" width="512px" height="512px">
<g>
	<path d="M49.379,13.497c-0.037-0.239-0.16-0.456-0.346-0.611l-9.217-7.713c-1.099-2.521-2.244-4.54-2.294-4.627   c-0.178-0.313-0.51-0.505-0.869-0.505h-1.917C34.649,0.015,34.557,0,34.463,0h-14c-0.094,0-0.186,0.015-0.274,0.041h-2.098   c-0.36,0-0.693,0.194-0.871,0.509c-0.054,0.095-1.294,2.301-2.431,4.986l-8.783,7.351c-0.186,0.155-0.309,0.372-0.346,0.611   L0.793,44.232c-0.087,0.545,0.285,1.058,0.831,1.144l8.616,1.365c0.262,0.042,0.53-0.023,0.744-0.179   c0.215-0.156,0.358-0.391,0.399-0.653l2.732-17.251l1.87,25.456c0.038,0.522,0.474,0.927,0.997,0.927h20.777   c0.523,0,0.959-0.404,0.997-0.927l1.964-26.732l2.935,18.527c0.041,0.262,0.185,0.497,0.399,0.653   c0.214,0.155,0.481,0.221,0.744,0.179l8.616-1.365c0.546-0.086,0.918-0.599,0.831-1.144L49.379,13.497z M32.767,2.04l-5.304,9.85   l-5.304-9.85C22.159,2.04,32.767,2.04,32.767,2.04z M17.913,53.041L17.029,41h5.434v3c0,0.552,0.447,1,1,1h8c0.553,0,1-0.448,1-1   v-3h5.253l-0.885,12.041H17.913z M24.463,39v-2h6v2v2v2h-6v-2V39z M45.475,44.609l-4.13-26.076   c-0.079-0.502-0.519-0.853-1.029-0.843c-0.507,0.021-0.918,0.419-0.955,0.926L37.863,39h-5.4v-3c0-0.552-0.447-1-1-1h-8   c-0.553,0-1,0.448-1,1v3h-5.581l-1.404-19.108c-0.037-0.506-0.448-0.905-0.955-0.926c-0.505-0.01-0.949,0.34-1.029,0.843   l-3.928,24.8l-6.641-1.052L7.576,14.18l8.683-7.266c0.123-0.103,0.22-0.234,0.281-0.382c0.804-1.928,1.702-3.665,2.145-4.491h1.202   l6.695,12.434C26.757,14.798,27.095,15,27.463,15s0.706-0.202,0.881-0.526L35.039,2.04h1.024c0.419,0.774,1.243,2.353,2.012,4.142   c0.063,0.144,0.157,0.272,0.277,0.372l9.111,7.625l4.652,29.377L45.475,44.609z" fill="#FFFFFF"/>
</g>
<g>
</g>
<g>
</g>
<g>
</g>
<g>
</g>
<g>
</g>
<g>
</g>
<g>
</g>
<g>
</g>
<g>
</g>
<g>
</g>
<g>
</g>
<g>
</g>
<g>
</g>
<g>
</g>
<g>
</g>
</svg>
